<svg width="1200" height="630" viewBox="0 0 1200 630" fill="none" xmlns="http://www.w3.org/2000/svg">
<rect width="1200" height="630" fill="white"/>
<path d="M511.557 371.559C506.88 371.559 502.514 370.728 498.461 369.065C494.511 367.402 491.341 364.855 488.95 361.425C486.56 357.891 485.364 353.526 485.364 348.329C485.364 340.741 487.911 334.817 493.004 330.555C498.201 326.19 505.944 324.007 516.234 324.007H536.814V322.292C536.814 318.55 535.567 315.9 533.072 314.341C530.578 312.678 525.9 311.846 519.04 311.846C510.621 311.846 502.358 313.146 494.251 315.744V299.53C497.889 298.075 502.306 296.879 507.503 295.944C512.804 295.008 518.365 294.541 524.185 294.541C535.619 294.541 544.557 296.879 551.002 301.557C557.55 306.234 560.824 313.665 560.824 323.851V370H538.841L537.593 363.764C534.891 366.258 531.409 368.181 527.148 369.532C522.99 370.883 517.793 371.559 511.557 371.559ZM519.508 356.124C523.458 356.124 526.888 355.449 529.798 354.097C532.708 352.746 535.047 351.031 536.814 348.952V338.507H519.04C511.661 338.507 507.971 341.469 507.971 347.393C507.971 350.096 508.906 352.227 510.777 353.786C512.648 355.345 515.559 356.124 519.508 356.124ZM603.316 371.559C597.391 371.559 591.779 371.143 586.478 370.312C581.177 369.48 576.967 368.441 573.849 367.194V348.017C577.487 349.576 581.697 350.771 586.478 351.603C591.259 352.434 595.52 352.85 599.262 352.85C603.732 352.85 606.954 352.642 608.929 352.227C611.007 351.811 612.047 350.667 612.047 348.797C612.047 346.718 610.384 345.159 607.058 344.119C603.732 343.08 599.158 341.573 593.338 339.598C586.582 337.207 581.437 334.453 577.903 331.335C574.473 328.113 572.758 323.384 572.758 317.147C572.758 309.872 575.46 304.311 580.865 300.465C586.374 296.516 595.105 294.541 607.058 294.541C611.735 294.541 616.36 294.904 620.933 295.632C625.507 296.36 629.248 297.191 632.159 298.127V316.991C629.248 315.64 625.922 314.653 622.181 314.029C618.439 313.406 615.061 313.094 612.047 313.094C608.201 313.094 604.927 313.354 602.224 313.873C599.626 314.289 598.327 315.38 598.327 317.147C598.327 319.122 599.782 320.525 602.692 321.357C605.602 322.084 609.812 323.332 615.321 325.099C621.141 326.866 625.663 328.788 628.885 330.867C632.107 332.842 634.393 335.233 635.745 338.039C637.096 340.845 637.771 344.379 637.771 348.641C637.771 356.02 634.861 361.685 629.041 365.635C623.22 369.584 614.645 371.559 603.316 371.559ZM650.48 370V264.918H675.581V301.557C678.388 299.478 681.87 297.815 686.027 296.567C690.185 295.216 694.654 294.541 699.435 294.541C709.309 294.541 716.533 296.879 721.106 301.557C725.784 306.234 728.122 313.406 728.122 323.072V370H703.021V324.787C703.021 320.525 702.138 317.511 700.371 315.744C698.604 313.977 695.434 313.094 690.86 313.094C688.158 313.094 685.404 313.717 682.597 314.965C679.791 316.212 677.452 317.771 675.581 319.642V370H650.48ZM746.789 370V315.121H736.966V296.1H746.789V290.331C746.789 285.03 748.036 280.249 750.53 275.988C753.129 271.726 756.871 268.348 761.756 265.854C766.641 263.255 772.565 261.956 779.529 261.956C788.052 261.956 794.964 262.995 800.265 265.074V282.848C799.018 282.224 797.147 281.756 794.652 281.444C792.262 281.029 790.079 280.821 788.104 280.821C782.076 280.821 777.866 281.652 775.476 283.315C773.085 284.978 771.89 287.525 771.89 290.955V296.1H815.232V370H790.131V315.121H771.89V370H746.789Z" fill="#242938"/>
<path d="M470.18 270.862H440.947V308.621H434.248C452.762 312.519 465.917 321.613 470.18 325.674V270.862Z" fill="#D93448"/>
<path d="M377 370.74H406.232V332.981H412.932C394.418 329.084 381.263 319.989 377 315.929V370.74Z" fill="#242938"/>
<path d="M377 313.493V270.862H418.413C399.412 277.683 396.691 288.321 397.706 292.787C401.117 304.48 421.864 309.027 431.811 309.839C453.249 313.737 466.322 324.05 470.179 328.719V371.35H428.766C453.614 361.605 451.3 349.425 447.037 344.553C444.113 340.168 427.548 335.012 419.631 332.982C390.886 326.648 379.233 317.35 377 313.493Z" fill="#242938"/>
</svg>
