<svg width="3467" height="1810" viewBox="0 0 3467 1810" fill="none" xmlns="http://www.w3.org/2000/svg">
<path d="M1045.11 1344.11C1008.78 1344.11 974.872 1337.65 943.388 1324.73C912.711 1311.82 888.089 1292.04 869.521 1265.4C850.953 1237.95 841.67 1204.05 841.67 1163.68C841.67 1104.75 861.448 1058.73 901.005 1025.64C941.369 991.729 1001.51 974.776 1081.43 974.776H1241.28V961.456C1241.28 932.394 1231.59 911.808 1212.21 899.699C1192.84 886.782 1156.51 880.324 1103.23 880.324C1037.84 880.324 973.661 890.415 910.693 910.597V784.66C938.948 773.358 973.257 764.075 1013.62 756.809C1054.79 749.543 1097.98 745.911 1143.19 745.911C1231.99 745.911 1301.42 764.075 1351.47 800.402C1402.33 836.73 1427.76 894.451 1427.76 973.565V1332H1257.02L1247.33 1283.56C1226.34 1302.94 1199.3 1317.87 1166.2 1328.37C1133.91 1338.86 1093.54 1344.11 1045.11 1344.11ZM1106.86 1224.23C1137.54 1224.23 1164.18 1218.98 1186.78 1208.49C1209.39 1197.99 1227.55 1184.67 1241.28 1168.52V1087.39H1103.23C1045.91 1087.39 1017.25 1110.4 1017.25 1156.42C1017.25 1177.4 1024.52 1193.95 1039.05 1206.06C1053.58 1218.17 1076.19 1224.23 1106.86 1224.23ZM1757.79 1344.11C1711.78 1344.11 1668.19 1340.88 1627.01 1334.42C1585.84 1327.96 1553.15 1319.89 1528.93 1310.2V1161.26C1557.18 1173.37 1589.88 1182.65 1627.01 1189.11C1664.15 1195.57 1697.25 1198.8 1726.31 1198.8C1761.02 1198.8 1786.05 1197.18 1801.39 1193.95C1817.53 1190.73 1825.61 1181.84 1825.61 1167.31C1825.61 1151.17 1812.69 1139.06 1786.86 1130.99C1761.02 1122.91 1725.5 1111.21 1680.29 1095.87C1627.82 1077.3 1587.86 1055.91 1560.41 1031.69C1533.77 1006.66 1520.45 969.932 1520.45 921.495C1520.45 864.985 1541.44 821.795 1583.42 791.926C1626.21 761.249 1694.02 745.911 1786.86 745.911C1823.18 745.911 1859.11 748.736 1894.63 754.387C1930.15 760.038 1959.21 766.496 1981.82 773.762V920.284C1959.21 909.79 1933.38 902.12 1904.32 897.277C1875.25 892.433 1849.02 890.011 1825.61 890.011C1795.74 890.011 1770.31 892.029 1749.32 896.066C1729.14 899.295 1719.04 907.771 1719.04 921.495C1719.04 936.834 1730.35 947.732 1752.95 954.19C1775.55 959.841 1808.25 969.529 1851.04 983.253C1896.24 996.976 1931.36 1011.91 1956.39 1028.06C1981.41 1043.4 1999.17 1061.96 2009.67 1083.76C2020.16 1105.56 2025.41 1133 2025.41 1166.1C2025.41 1223.42 2002.8 1267.42 1957.6 1298.09C1912.39 1328.77 1845.79 1344.11 1757.79 1344.11ZM2124.12 1332V515.834H2319.08V800.402C2340.87 784.257 2367.92 771.34 2400.21 761.653C2432.5 751.158 2467.21 745.911 2504.35 745.911C2581.04 745.911 2637.15 764.075 2672.67 800.402C2709 836.73 2727.16 892.433 2727.16 967.51V1332H2532.2V980.831C2532.2 947.732 2525.34 924.321 2511.62 910.597C2497.89 896.873 2473.27 890.011 2437.75 890.011C2416.76 890.011 2395.37 894.855 2373.57 904.542C2351.77 914.23 2333.61 926.339 2319.08 940.87V1332H2124.12ZM2872.14 1332V905.753H2795.85V758.02H2872.14V713.216C2872.14 672.044 2881.83 634.909 2901.2 601.81C2921.39 568.711 2950.45 542.475 2988.39 523.1C3026.33 502.918 3072.35 492.827 3126.44 492.827C3192.63 492.827 3246.32 500.899 3287.49 517.045V655.091C3277.8 650.247 3263.27 646.614 3243.9 644.193C3225.33 640.963 3208.38 639.349 3193.04 639.349C3146.21 639.349 3113.52 645.807 3094.95 658.724C3076.38 671.64 3067.1 691.419 3067.1 718.059V758.02H3403.74V1332H3208.78V905.753H3067.1V1332H2872.14Z" fill="#242938"/>
<path d="M723.72 558.163H496.671V851.435H444.639C588.436 881.708 690.608 952.345 723.72 983.88V558.163Z" fill="#D93448"/>
<path d="M0.00088501 1333.91H227.05V1040.64H279.082C135.284 1010.37 33.1122 939.731 0.00088501 908.196V1333.91Z" fill="#242938"/>
<path d="M0 889.276V558.163H321.653C174.071 611.141 152.943 693.762 160.826 728.45C187.315 819.27 348.457 854.588 425.717 860.895C592.22 891.168 693.761 971.266 723.719 1007.53V1338.64H402.066C595.058 1262.96 577.083 1168.36 543.972 1130.52C521.267 1096.46 392.606 1056.41 331.113 1040.64C107.848 991.448 17.344 919.234 0 889.276Z" fill="#242938"/>
</svg>
