<svg width="2630" height="1047" viewBox="0 0 2630 1047" fill="none" xmlns="http://www.w3.org/2000/svg">
<rect width="2629.77" height="1046.1" fill="#2A2A2A"/>
<path d="M886.626 446.43V412.398C886.626 384.564 864.062 362 836.228 362C808.394 362 785.83 384.564 785.83 412.398L785.83 445.461C785.83 464.081 813.037 483.29 830.182 490.552C860.495 503.392 886.626 479.35 886.626 446.43Z" fill="url(#paint0_linear_620_3)"/>
<path d="M564.011 600.207V634.239C564.011 662.074 586.575 684.637 614.409 684.637C642.243 684.637 664.807 662.074 664.807 634.24L664.808 601.177C664.808 582.557 637.6 563.347 620.455 556.085C590.143 543.245 564.011 567.288 564.011 600.207Z" fill="url(#paint1_linear_620_3)"/>
<path d="M564 484.087V381.998C564 370.954 572.954 362 583.998 362H598.891C618.843 362 630.948 413.016 635.698 432.395C647.507 469.939 719.346 484.539 753.789 487.147C810.597 496.724 850.443 518.365 872.004 534.716C882.093 542.367 886.642 554.761 886.642 567.424V663.164C886.642 675.027 877.025 684.643 865.163 684.643C841.129 684.643 823.439 622.208 809.677 602.504C808.683 601.081 807.615 599.777 806.508 598.605C796.386 584.526 739.028 567.97 711.614 561.452C634.191 545.634 592.579 524.057 574.273 509.423C566.722 503.387 564 493.754 564 484.087Z" fill="url(#paint2_linear_620_3)"/>
<path d="M1047.09 657.782C1044.31 658.569 1040.38 659.225 1035.32 659.75C1030.25 660.538 1024.94 660.932 1019.37 660.932C1007.47 660.932 999.112 658.832 994.301 654.632C989.744 650.432 987.465 642.82 987.465 631.795V418.78C990.25 418.255 994.175 417.599 999.238 416.811C1004.56 416.024 1009.75 415.63 1014.81 415.63C1026.2 415.63 1034.43 417.599 1039.5 421.536C1044.56 425.474 1047.09 433.217 1047.09 444.767V514.066H1128.75V418.78C1131.53 418.255 1135.46 417.599 1140.52 416.811C1145.84 416.024 1151.16 415.63 1156.47 415.63C1167.61 415.63 1175.72 417.73 1180.78 421.93C1185.84 426.13 1188.38 434.005 1188.38 445.555V657.782C1185.59 658.569 1181.67 659.225 1176.6 659.75C1171.54 660.538 1166.22 660.932 1160.65 660.932C1148.75 660.932 1140.39 658.832 1135.58 654.632C1131.03 650.432 1128.75 642.82 1128.75 631.795V562.89H1047.09V657.782Z" fill="white"/>
<path d="M1312.17 619.982C1317.74 619.982 1323.18 619.458 1328.5 618.408C1334.07 617.095 1338.25 615.52 1341.03 613.683V577.458L1309.89 580.215C1301.79 581.002 1295.2 582.971 1290.14 586.121C1285.33 589.008 1282.92 593.471 1282.92 599.508C1282.92 605.808 1285.2 610.795 1289.76 614.47C1294.32 618.145 1301.79 619.982 1312.17 619.982ZM1309.89 462.879C1323.05 462.879 1334.95 464.323 1345.59 467.21C1356.48 469.835 1365.72 474.035 1373.31 479.81C1380.91 485.585 1386.73 492.935 1390.78 501.86C1395.09 510.785 1397.24 521.284 1397.24 533.359V622.345C1397.24 629.17 1395.47 634.682 1391.92 638.882C1388.63 642.82 1384.58 646.232 1379.77 649.119C1371.92 654.107 1362.3 657.913 1350.91 660.538C1339.51 663.163 1326.6 664.475 1312.17 664.475C1286.09 664.475 1265.33 659.357 1249.88 649.119C1234.44 638.62 1226.71 622.739 1226.71 601.477C1226.71 583.364 1231.9 569.583 1242.29 560.134C1252.67 550.684 1268.62 544.778 1290.14 542.415L1340.65 536.903V532.572C1340.65 524.172 1337.36 518.003 1330.78 514.066C1324.19 510.128 1314.7 508.16 1302.29 508.16C1292.67 508.16 1283.18 509.341 1273.81 511.703C1264.69 514.066 1256.46 516.822 1249.12 519.972C1246.08 517.872 1243.42 514.722 1241.15 510.522C1239.12 506.06 1238.11 501.335 1238.11 496.347C1238.11 484.798 1243.93 476.529 1255.58 471.542C1262.92 468.654 1271.4 466.554 1281.02 465.242C1290.9 463.667 1300.52 462.879 1309.89 462.879Z" fill="white"/>
<path d="M1589.1 602.658C1589.1 622.082 1582.13 637.307 1568.21 648.332C1554.28 659.094 1533.77 664.475 1506.68 664.475C1496.05 664.475 1486.3 663.688 1477.44 662.113C1468.83 660.538 1461.36 658.175 1455.03 655.026C1448.7 651.876 1443.76 647.938 1440.22 643.213C1436.67 638.488 1434.9 632.976 1434.9 626.676C1434.9 620.901 1436.04 616.045 1438.32 612.108C1440.6 607.908 1443.51 604.495 1447.05 601.87C1454.4 606.333 1462.75 610.27 1472.12 613.683C1481.49 617.095 1492.37 618.801 1504.78 618.801C1522.76 618.801 1531.75 613.551 1531.75 603.052C1531.75 598.589 1530.1 595.177 1526.81 592.814C1523.77 590.452 1518.45 588.352 1510.86 586.514L1495.67 582.971C1474.9 578.508 1459.46 571.683 1449.33 562.496C1439.2 553.046 1434.14 539.922 1434.14 523.122C1434.14 504.485 1441.36 489.785 1455.79 479.023C1470.47 467.998 1490.1 462.486 1514.66 462.486C1523.77 462.486 1532.38 463.273 1540.48 464.848C1548.58 466.16 1555.55 468.26 1561.37 471.148C1567.19 474.035 1571.75 477.71 1575.04 482.173C1578.59 486.373 1580.36 491.36 1580.36 497.135C1580.36 502.385 1579.35 507.11 1577.32 511.31C1575.3 515.247 1572.64 518.528 1569.35 521.153C1567.32 519.841 1564.28 518.397 1560.23 516.822C1556.43 515.247 1552.26 513.803 1547.7 512.491C1543.14 511.178 1538.33 510.128 1533.27 509.341C1528.2 508.553 1523.52 508.16 1519.21 508.16C1510.35 508.16 1503.39 509.472 1498.32 512.097C1493.51 514.46 1491.11 518.134 1491.11 523.122C1491.11 526.797 1492.5 529.684 1495.29 531.784C1498.07 533.884 1503.14 535.853 1510.48 537.69L1524.91 541.234C1547.95 546.484 1564.41 554.096 1574.28 564.071C1584.16 574.046 1589.1 586.908 1589.1 602.658Z" fill="white"/>
<path d="M1681.92 657.782C1679.38 658.569 1675.84 659.225 1671.28 659.75C1666.72 660.538 1661.66 660.932 1656.09 660.932C1644.7 660.932 1636.47 659.094 1631.4 655.419C1626.34 651.482 1623.81 644.001 1623.81 632.976V401.849C1626.59 401.062 1630.26 400.274 1634.82 399.487C1639.38 398.699 1644.44 398.306 1650.01 398.306C1661.41 398.306 1669.51 400.274 1674.32 404.212C1679.38 408.149 1681.92 415.63 1681.92 426.655V471.935C1687.23 469.31 1693.18 467.21 1699.77 465.635C1706.6 463.798 1713.95 462.879 1721.79 462.879C1746.1 462.879 1765.09 469.31 1778.76 482.173C1792.69 494.772 1799.65 513.803 1799.65 539.265V657.782C1797.12 658.569 1793.58 659.225 1789.02 659.75C1784.46 660.538 1779.4 660.932 1773.83 660.932C1762.43 660.932 1754.2 659.094 1749.14 655.419C1744.08 651.482 1741.54 644.001 1741.54 632.976V542.809C1741.54 530.997 1738.63 522.597 1732.81 517.609C1727.24 512.622 1720.02 510.128 1711.16 510.128C1705.34 510.128 1700.02 511.047 1695.21 512.885C1690.4 514.46 1685.97 516.428 1681.92 518.791V657.782Z" fill="white"/>
<path fill-rule="evenodd" clip-rule="evenodd" d="M1963.76 482.566H1899.2V467.604C1899.2 457.367 1902.23 450.148 1908.31 445.948C1914.39 441.486 1923.25 439.255 1934.9 439.255C1941.73 439.255 1947.81 439.78 1953.13 440.83C1958.7 441.88 1963.89 443.192 1968.7 444.767C1971.23 442.667 1973.38 439.78 1975.15 436.105C1977.18 432.167 1978.19 427.705 1978.19 422.718C1978.19 411.693 1973.76 403.818 1964.9 399.093C1956.29 394.106 1943 391.612 1925.02 391.612C1913.63 391.612 1902.99 393.056 1893.12 395.943C1883.24 398.831 1874.64 403.293 1867.29 409.33C1859.95 415.105 1854.13 422.718 1849.82 432.167C1845.77 441.617 1843.75 452.773 1843.75 465.635V632.976C1843.75 644.001 1846.28 651.482 1851.34 655.419C1856.41 659.094 1864.63 660.932 1876.03 660.932C1881.6 660.932 1886.66 660.538 1891.22 659.75C1895.78 659.225 1899.32 658.569 1901.85 657.782V529.028H1950.09C1955.91 529.028 1960.6 527.191 1964.14 523.516C1967.94 519.841 1969.84 513.803 1969.84 505.403C1969.84 500.679 1969.08 496.347 1967.56 492.41C1966.29 488.473 1965.03 485.191 1963.76 482.566ZM2052.25 659.75C2056.81 659.225 2060.35 658.569 2062.89 657.782V495.954C2062.89 484.929 2060.35 477.448 2055.29 473.51C2050.48 469.573 2042.38 467.604 2030.98 467.604C2025.41 467.604 2020.35 467.998 2015.79 468.785C2011.23 469.573 2007.69 470.36 2005.16 471.148V632.976C2005.16 644.001 2007.56 651.482 2012.37 655.419C2017.44 659.094 2025.67 660.932 2037.06 660.932C2042.63 660.932 2047.7 660.538 2052.25 659.75Z" fill="white"/>
<path d="M2001.74 414.449C2001.74 405.524 2004.65 397.912 2010.48 391.612C2016.55 385.312 2024.4 382.162 2034.02 382.162C2043.64 382.162 2051.37 385.312 2057.19 391.612C2063.27 397.912 2066.3 405.524 2066.3 414.449C2066.3 423.636 2063.27 431.38 2057.19 437.68C2051.37 443.98 2043.64 447.13 2034.02 447.13C2024.4 447.13 2016.55 443.98 2010.48 437.68C2004.65 431.38 2001.74 423.636 2001.74 414.449Z" fill="url(#paint3_linear_620_3)"/>
<defs>
<linearGradient id="paint0_linear_620_3" x1="507.86" y1="482.669" x2="951.816" y2="701.419" gradientUnits="userSpaceOnUse">
<stop stop-color="#FF4244"/>
<stop offset="1" stop-color="#FF8E3C"/>
</linearGradient>
<linearGradient id="paint1_linear_620_3" x1="507.86" y1="482.669" x2="951.816" y2="701.419" gradientUnits="userSpaceOnUse">
<stop stop-color="#FF4244"/>
<stop offset="1" stop-color="#FF8E3C"/>
</linearGradient>
<linearGradient id="paint2_linear_620_3" x1="507.86" y1="482.669" x2="951.816" y2="701.419" gradientUnits="userSpaceOnUse">
<stop stop-color="#FF4244"/>
<stop offset="1" stop-color="#FF8E3C"/>
</linearGradient>
<linearGradient id="paint3_linear_620_3" x1="799.747" y1="487.747" x2="1205.62" y2="1251.99" gradientUnits="userSpaceOnUse">
<stop stop-color="#FF4244"/>
<stop offset="1" stop-color="#FF8E3C"/>
</linearGradient>
</defs>
</svg>
